<?xml version="1.0" standalone="no"?>
<!DOCTYPE svg PUBLIC "-//W3C//DTD SVG 20010904//EN"
 "http://www.w3.org/TR/2001/REC-SVG-20010904/DTD/svg10.dtd">
<svg version="1.0" xmlns="http://www.w3.org/2000/svg"
 width="560.000000pt" height="542.000000pt" viewBox="0 0 560.000000 542.000000"
 preserveAspectRatio="xMidYMid meet">

<g transform="translate(0.000000,542.000000) scale(0.100000,-0.100000)"
fill="#000000" stroke="none">
<path d="M0 2710 l0 -2710 2800 0 2800 0 0 2710 0 2710 -2800 0 -2800 0 0
-2710z m3572 1369 c466 -177 849 -327 851 -334 3 -6 -104 -344 -236 -749
l-242 -738 -563 -618 c-309 -340 -571 -620 -580 -623 -13 -3 -159 130 -533
486 -283 269 -563 536 -622 592 l-108 103 -248 739 c-136 406 -246 745 -244
753 4 16 1620 707 1658 709 11 1 401 -143 867 -320z"/>
<path d="M2791 3886 l-22 -12 26 -12 c27 -13 71 0 60 17 -9 15 -42 19 -64 7z"/>
<path d="M2046 3858 c-42 -21 -55 -32 -45 -38 8 -4 232 -127 499 -273 267
-146 497 -271 512 -278 25 -11 33 -9 88 28 l61 40 -54 31 c-65 37 -75 48 -47
57 26 8 26 25 0 25 -11 0 -20 -4 -20 -9 0 -13 -27 -21 -45 -15 -20 8 -9 24 18
24 16 0 18 3 9 12 -9 9 -18 9 -37 0 -34 -16 -40 -15 -25 3 18 22 4 34 -38 28
-25 -3 -43 1 -57 12 -19 16 -19 16 15 11 33 -5 34 -5 16 9 -23 18 -31 18 -57
5 -13 -8 -25 -7 -40 0 -20 11 -21 37 0 32 6 -1 11 5 11 13 0 19 -11 19 -36 0
-26 -19 -40 -19 -23 1 11 14 10 18 -6 30 -23 17 -30 17 -56 4 -14 -8 -25 -7
-40 3 -17 13 -18 15 -4 21 23 9 32 7 17 -3 -11 -7 -11 -9 2 -14 20 -8 33 13
15 24 -8 5 -26 8 -41 6 -20 -3 -25 0 -18 8 16 19 -35 38 -63 23 -20 -10 -21
-10 -9 5 11 13 10 17 -7 26 -11 6 -25 11 -31 11 -6 0 -19 7 -27 16 -12 11 -26
14 -52 9 -33 -6 -34 -5 -17 8 19 14 18 15 -17 32 -24 11 -46 15 -64 10 -23 -5
-25 -4 -14 8 16 20 1 28 -44 25 -19 -1 -41 4 -47 11 -11 11 -8 13 14 9 16 -3
25 -1 21 5 -3 5 -21 7 -41 4 -24 -4 -46 0 -73 13 -21 11 -40 20 -41 20 -2 -1
-30 -15 -62 -32z m257 -45 c-7 -2 -19 -2 -25 0 -7 3 -2 5 12 5 14 0 19 -2 13
-5z m62 -33 c-3 -5 -13 -10 -21 -10 -8 0 -14 5 -14 10 0 6 9 10 21 10 11 0 17
-4 14 -10z m30 -20 c-3 -5 -10 -10 -16 -10 -5 0 -9 5 -9 10 0 6 7 10 16 10 8
0 12 -4 9 -10z m75 -30 c0 -5 -7 -10 -15 -10 -8 0 -15 5 -15 10 0 6 7 10 15
10 8 0 15 -4 15 -10z m60 -30 c0 -5 -7 -10 -16 -10 -8 0 -12 5 -9 10 3 6 10
10 16 10 5 0 9 -4 9 -10z m65 -40 c-3 -5 -13 -10 -21 -10 -8 0 -12 5 -9 10 3
6 13 10 21 10 8 0 12 -4 9 -10z m140 -70 c-3 -5 -13 -10 -21 -10 -8 0 -14 5
-14 10 0 6 9 10 21 10 11 0 17 -4 14 -10z m202 -116 c-3 -3 -12 -4 -19 -1 -8
3 -5 6 6 6 11 1 17 -2 13 -5z"/>
<path d="M2953 3864 c-24 -11 -1 -34 34 -34 27 0 34 4 31 18 -3 17 -41 26 -65
16z"/>
<path d="M2721 3851 c-11 -7 -10 -11 7 -20 28 -15 47 -14 61 3 9 11 8 15 -5
20 -22 8 -46 7 -63 -3z"/>
<path d="M3074 3826 c-18 -14 -18 -15 9 -25 30 -12 77 3 61 19 -19 17 -51 20
-70 6z"/>
<path d="M2661 3817 c-17 -22 28 -39 59 -22 l23 13 -21 11 c-28 15 -47 14 -61
-2z"/>
<path d="M2790 3820 c-13 -9 -13 -11 0 -20 20 -13 37 -12 62 1 17 9 18 13 7
20 -19 12 -50 11 -69 -1z"/>
<path d="M2440 3530 c585 -327 560 -313 560 -301 0 11 -1016 575 -1044 579
-12 2 206 -123 484 -278z"/>
<path d="M2726 3787 c-17 -12 -16 -14 8 -25 20 -9 32 -9 52 0 24 11 25 13 8
25 -10 7 -25 13 -34 13 -9 0 -24 -6 -34 -13z"/>
<path d="M2920 3780 c0 -16 7 -20 35 -20 28 0 35 4 35 20 0 16 -7 20 -35 20
-28 0 -35 -4 -35 -20z"/>
<path d="M2797 3755 c-18 -13 -18 -14 2 -24 27 -15 46 -14 60 3 10 12 8 17 -8
25 -25 14 -32 13 -54 -4z"/>
<path d="M1927 3065 c12 -21 135 -105 146 -98 9 6 -18 27 -97 78 -33 21 -54
30 -49 20z"/>
<path d="M3540 3032 c-68 -55 -95 -82 -82 -82 7 0 22 9 34 19 13 11 42 35 66
54 23 20 39 38 35 40 -5 3 -28 -11 -53 -31z"/>
<path d="M2350 2770 c-13 -8 -12 -10 3 -10 9 0 17 5 17 10 0 12 -1 12 -20 0z"/>
<path d="M3170 2730 c0 -5 7 -10 16 -10 8 0 12 5 9 10 -3 6 -10 10 -16 10 -5
0 -9 -4 -9 -10z"/>
<path d="M3719 2654 c-9 -11 -19 -30 -22 -43 l-6 -25 25 26 c14 14 24 33 22
43 -3 16 -4 16 -19 -1z"/>
<path d="M2568 2615 c5 -11 62 -56 126 -100 l115 -80 1 -67 c0 -56 3 -68 16
-68 14 0 14 3 4 15 -9 10 -9 15 -1 15 7 0 11 19 11 48 0 36 5 54 20 67 22 20
27 39 8 32 -7 -2 -12 -9 -11 -14 5 -26 -54 1 -144 65 -54 38 -111 78 -127 88
-29 18 -29 18 -18 -1z"/>
<path d="M3627 2540 c-16 -26 -16 -30 -3 -30 9 0 22 14 31 30 12 24 13 30 2
30 -7 0 -21 -13 -30 -30z"/>
<path d="M1814 2528 c4 -12 9 -34 12 -48 3 -14 14 -34 25 -45 19 -19 19 -19
19 2 0 12 -10 29 -22 39 -18 13 -19 15 -4 10 14 -5 17 -2 12 10 -3 8 -6 19 -6
22 0 4 -10 13 -21 21 -20 12 -21 11 -15 -11z"/>
<path d="M3652 2502 c-13 -17 -18 -33 -13 -37 12 -7 44 40 39 56 -2 7 -14 -1
-26 -19z"/>
<path d="M3850 2485 c-25 -24 -51 -44 -58 -45 -7 0 -16 -8 -19 -17 -11 -28
-36 -52 -46 -46 -6 3 -8 2 -5 -3 3 -5 -8 -22 -24 -39 -23 -24 -28 -26 -23 -10
3 11 -1 7 -9 -10 -8 -16 -17 -29 -21 -27 -10 5 -125 -111 -125 -126 0 -7 -4
-11 -8 -8 -11 7 -88 -74 -97 -103 -4 -15 -10 -19 -14 -12 -5 7 -17 0 -37 -21
-16 -17 -23 -28 -15 -23 9 5 12 3 9 -6 -3 -8 -11 -13 -17 -11 -6 1 -11 -6 -11
-15 0 -14 -2 -15 -9 -5 -6 10 -11 9 -22 -4 -9 -11 -9 -15 -2 -10 9 5 11 2 7
-9 -4 -9 -9 -13 -12 -10 -3 3 -14 -9 -24 -26 -10 -16 -23 -27 -28 -24 -6 3
-10 1 -10 -5 0 -6 -20 -32 -44 -58 -32 -35 -45 -58 -50 -92 l-7 -45 54 53 c29
29 55 50 58 48 3 -3 59 50 124 117 66 67 87 91 48 52 -40 -38 -73 -65 -73 -60
0 13 165 177 171 171 3 -3 57 47 119 112 63 64 91 95 63 67 -29 -27 -53 -45
-53 -39 0 13 135 146 141 139 3 -2 23 13 44 35 22 22 35 40 31 40 -5 0 -3 7 4
15 10 12 43 105 37 105 -1 0 -22 -20 -47 -45z m0 -78 c0 -2 -17 -19 -37 -38
l-38 -34 34 38 c33 34 41 42 41 34z m-307 -232 c-3 -9 -8 -14 -10 -11 -3 3 -2
9 2 15 9 16 15 13 8 -4z m97 12 c0 -1 -30 -32 -67 -67 l-68 -65 65 68 c60 62
70 72 70 64z m-259 -180 c-10 -9 -11 -8 -5 6 3 10 9 15 12 12 3 -3 0 -11 -7
-18z m-41 -130 c0 -1 -24 -25 -52 -52 l-53 -50 50 53 c46 48 55 57 55 49z"/>
<path d="M1897 2514 c-8 -8 31 -64 44 -64 15 0 10 23 -10 48 -21 24 -24 25
-34 16z"/>
<path d="M1610 2462 c0 -30 29 -82 62 -110 21 -19 36 -37 33 -41 -2 -4 15 -25
38 -47 31 -29 34 -31 13 -6 -17 17 -25 32 -20 32 13 0 76 -65 69 -71 -2 -3 14
-23 38 -45 31 -29 34 -30 13 -6 -44 48 -17 39 29 -10 22 -23 31 -36 20 -28
-11 8 0 -7 25 -33 24 -26 46 -47 49 -47 3 0 -10 16 -29 35 -19 19 -29 35 -24
35 5 0 30 -21 54 -47 25 -26 37 -41 28 -34 -33 25 -18 6 29 -39 38 -35 41 -37
13 -7 -18 20 -29 37 -24 37 13 0 76 -65 69 -71 -2 -3 17 -25 43 -50 l47 -44
-40 43 c-21 23 -35 42 -29 42 13 0 86 -75 79 -82 -5 -4 98 -102 225 -212 l35
-31 -34 38 c-38 40 -32 51 7 15 l25 -23 -7 45 c-5 37 -15 53 -56 90 -26 25
-51 57 -54 73 -4 15 -11 27 -16 27 -5 0 -7 -7 -4 -15 4 -8 1 -15 -5 -15 -6 0
-12 5 -12 10 -1 6 -2 14 -3 19 -2 16 -16 25 -16 10 -1 -8 -7 1 -15 19 -8 18
-18 31 -22 30 -16 -4 -51 13 -57 29 -6 14 -4 14 11 2 16 -13 17 -12 4 4 -8 10
-20 16 -27 13 -11 -4 -62 40 -56 50 7 12 0 22 -18 27 -13 3 -18 1 -13 -5 4 -7
1 -8 -6 -4 -7 5 -10 14 -7 21 6 17 -21 28 -28 12 -2 -7 -5 -4 -5 6 -1 10 -5
16 -10 13 -5 -3 -8 2 -7 12 0 10 -6 16 -16 16 -10 -1 -18 2 -18 7 0 5 -7 9
-15 9 -8 0 -15 5 -15 11 0 5 6 7 13 3 6 -4 4 2 -7 14 -10 12 -23 19 -27 16 -5
-3 -9 0 -9 6 0 6 -5 8 -11 5 -6 -4 -13 2 -16 14 -5 19 -15 25 -35 23 -3 -1 -9
5 -12 14 -4 10 -2 13 7 8 7 -5 7 -1 -2 10 -11 13 -16 14 -22 4 -7 -10 -9 -9
-9 3 0 23 -66 84 -73 67 -4 -9 -6 -8 -6 3 -1 20 -28 44 -50 44 -9 0 -15 8 -14
18 0 12 -4 16 -12 13 -8 -3 -25 4 -39 15 -14 11 -26 16 -26 11z m180 -133 c0
-6 -4 -7 -10 -4 -5 3 -10 11 -10 16 0 6 5 7 10 4 6 -3 10 -11 10 -16z m525
-553 c44 -42 76 -75 70 -75 -5 0 -50 38 -100 85 -49 47 -81 81 -70 75 11 -6
56 -44 100 -85z"/>
<path d="M1980 2451 c0 -11 10 -27 23 -36 20 -14 22 -14 25 0 4 17 -24 55 -40
55 -4 0 -8 -9 -8 -19z"/>
<path d="M1880 2426 c0 -7 11 -23 25 -36 25 -24 33 -14 15 19 -12 23 -40 35
-40 17z"/>
<path d="M3531 2414 c-12 -15 -21 -34 -21 -43 1 -21 50 33 50 55 0 20 -6 18
-29 -12z"/>
<path d="M1840 2417 c0 -10 10 -26 23 -38 12 -11 34 -32 49 -47 26 -26 28 -26
28 -6 0 25 -34 59 -49 49 -6 -3 -11 0 -11 8 0 8 -9 22 -20 32 -18 16 -20 16
-20 2z"/>
<path d="M3548 2382 c-27 -27 -48 -57 -48 -67 0 -17 1 -17 20 0 11 10 20 24
20 32 0 7 5 12 11 11 14 -4 53 46 48 61 -2 6 -25 -11 -51 -37z"/>
<path d="M3588 2372 c-27 -27 -48 -57 -48 -68 1 -17 2 -17 20 5 11 13 20 31
20 40 0 12 2 13 8 3 7 -10 12 -8 24 5 12 14 31 63 25 63 -1 0 -23 -22 -49 -48z"/>
<path d="M1965 2370 c9 -16 22 -30 30 -30 19 0 19 5 -1 35 -9 14 -23 25 -30
25 -12 0 -12 -5 1 -30z"/>
<path d="M1655 2340 c10 -11 20 -20 23 -20 3 0 -3 9 -13 20 -10 11 -20 20 -23
20 -3 0 3 -9 13 -20z"/>
<path d="M1950 2317 c0 -8 11 -24 25 -37 29 -27 35 -9 9 28 -17 25 -34 29 -34
9z"/>
<path d="M3506 2292 c-10 -12 -16 -29 -14 -39 3 -15 6 -14 22 9 23 35 17 57
-8 30z"/>
<path d="M2812 2145 c-1 -33 3 -78 7 -100 9 -40 9 -40 9 15 0 30 -3 75 -7 100
l-8 45 -1 -60z"/>
<path d="M3170 1695 c-24 -25 -42 -45 -39 -45 3 0 25 20 49 45 24 25 42 45 39
45 -3 0 -25 -20 -49 -45z"/>
<path d="M2800 1613 c0 -29 5 -53 10 -53 13 0 13 70 0 90 -7 11 -10 0 -10 -37z"/>
<path d="M2793 1070 c0 -25 2 -35 4 -22 2 12 2 32 0 45 -2 12 -4 2 -4 -23z"/>
</g>
</svg>
